<?xml version="1.0" standalone="no"?>
<!DOCTYPE svg PUBLIC "-//W3C//DTD SVG 20010904//EN"
 "http://www.w3.org/TR/2001/REC-SVG-20010904/DTD/svg10.dtd">
<svg version="1.0" xmlns="http://www.w3.org/2000/svg"
 width="128.000000pt" height="128.000000pt" viewBox="0 0 128.000000 128.000000"
 preserveAspectRatio="xMidYMid meet">
<metadata>
Created by potrace 1.11, written by Peter Selinger 2001-2013
</metadata>
<g transform="translate(0.000000,128.000000) scale(0.100000,-0.100000)"
fill="#000000" stroke="none">
<path d="M402 1204 c-26 -18 -20 -39 20 -73 15 -13 25 -28 22 -33 -3 -4 0 -7
8 -6 9 2 12 -7 10 -32 -1 -19 -3 -43 -3 -53 0 -16 -62 -53 -82 -48 -5 1 -6 -3
-2 -9 6 -9 -7 -14 -27 -11 -5 0 -7 -4 -5 -10 1 -7 -13 -21 -31 -32 l-34 -20
-31 35 c-40 44 -64 53 -76 29 -10 -18 -4 -64 8 -57 3 2 12 -2 19 -10 7 -8 9
-14 5 -15 -4 0 2 -4 15 -9 17 -8 21 -15 18 -36 -3 -15 -12 -34 -21 -44 -8 -9
-12 -20 -8 -23 3 -4 0 -7 -7 -7 -7 0 -11 -3 -7 -6 3 -4 0 -19 -9 -35 -8 -16
-14 -30 -14 -31 1 -2 -2 -22 -6 -45 l-7 -43 -64 0 c-43 0 -69 -5 -79 -14 -35
-35 -1 -61 76 -58 l59 2 11 -57 c7 -32 25 -86 42 -121 l29 -62 -40 -41 c-45
-43 -49 -59 -25 -83 22 -23 29 -21 79 25 l44 40 30 -29 c43 -41 137 -89 210
-107 84 -22 222 -12 298 22 51 23 143 83 143 93 0 4 7 11 15 14 10 4 27 -7 45
-28 35 -40 65 -50 85 -29 22 22 19 29 -30 82 -27 28 -41 51 -35 57 20 21 59
113 69 165 l12 56 61 2 c78 2 104 21 79 60 -6 9 -31 15 -69 16 -33 2 -65 5
-70 9 -5 3 -13 26 -16 51 -4 25 -22 74 -40 110 -18 36 -29 68 -24 71 4 3 5 10
2 16 -4 6 -3 8 3 5 5 -4 24 10 41 29 33 37 40 54 21 54 -5 0 -8 4 -4 9 3 5 -4
13 -16 16 -16 5 -31 -2 -63 -33 l-41 -41 -39 35 c-21 18 -42 34 -48 34 -5 0
-6 5 -2 12 4 6 3 8 -3 5 -5 -3 -21 0 -36 8 -15 8 -27 11 -28 7 -1 -8 -18 43
-24 74 -4 16 8 35 40 67 50 51 55 71 25 87 -16 9 -26 7 -45 -8 -13 -11 -21
-22 -18 -26 3 -3 -1 -6 -10 -6 -9 0 -20 -8 -26 -17 -9 -17 -12 -16 -48 1 -57
28 -125 29 -173 3 -37 -21 -41 -21 -67 -6 -16 9 -26 22 -25 30 2 8 0 11 -4 7
-4 -4 -15 1 -24 12 -15 17 -19 18 -38 4z"/>
<path d="M135 600 c-3 -5 -1 -10 4 -10 6 0 11 5 11 10 0 6 -2 10 -4 10 -3 0
-8 -4 -11 -10z"/>
</g>
</svg>
